<svg width="50" height="50" viewBox="0 0 50 50" fill="none" xmlns="http://www.w3.org/2000/svg">
<path d="M49 24.9959C49 11.7433 38.2548 1 25 1C11.7452 1 1 11.7433 1 24.9959C1 38.2484 11.7452 48.9917 25 48.9917C27.0202 48.9917 29.7999 49.2708 29.8 46.5921C29.8 45.1308 29.0398 44.0033 28.2846 42.8834C27.1797 41.2447 26.0856 39.6221 27.4 36.9938C29 33.7943 31.6667 33.7943 35.7556 33.7943C37.8001 33.7943 40.2001 33.7943 43.0001 33.3944C48.0424 32.6742 49 29.5752 49 24.9959Z" stroke="white" stroke-width="2"/>
<path d="M12.9998 32.2004L13.0215 32.1946" stroke="white" stroke-width="2" stroke-linecap="round" stroke-linejoin="round"/>
<ellipse cx="19" cy="16.5973" rx="3.6" ry="3.59938" stroke="white" stroke-width="2"/>
<ellipse cx="35.8002" cy="18.9968" rx="3.6" ry="3.59938" stroke="white" stroke-width="2"/>
</svg>
