<svg width="50" height="50" viewBox="0 0 50 50" fill="none" xmlns="http://www.w3.org/2000/svg">
<path d="M49 25C49 38.2548 38.2548 49 25 49C11.7452 49 1 38.2548 1 25C1 11.7452 11.7452 1 25 1C38.2548 1 49 11.7452 49 25Z" stroke="white" stroke-width="2"/>
<path d="M1 25C6.47274 30.8293 15.186 34.6 25 34.6C34.814 34.6 43.5273 30.8293 49 25" stroke="white" stroke-width="2"/>
<path d="M25 1V49" stroke="white" stroke-width="2" stroke-linecap="round" stroke-linejoin="round"/>
<path d="M8.57345 8.19995C7.65732 11.8 8.29617 17.8 11.9589 22.6C15.8099 27.6467 18.2378 34.5999 9.08639 41.7999" stroke="white" stroke-width="2" stroke-linecap="round" stroke-linejoin="round"/>
<path d="M41.4265 8.19995C42.3427 11.8 41.7038 17.8 38.0411 22.6C34.1901 27.6467 31.7622 34.5999 40.9136 41.7999" stroke="white" stroke-width="2" stroke-linecap="round" stroke-linejoin="round"/>
</svg>
