<svg width="60" height="64" viewBox="0 0 60 64" fill="none" xmlns="http://www.w3.org/2000/svg">
<path d="M4.09585 49.052C1.67974 47.1079 0.651828 44.4139 0.223898 41.4875C-0.0702113 39.4375 -0.0496255 37.3523 0.141546 35.2685C0.362128 32.8715 0.818 30.5392 1.65327 28.2908C3.44146 23.4806 6.22227 19.3366 10.106 15.9661C11.2736 14.9514 12.5339 14.0661 14.1485 13.8647C16.3543 13.5912 18.2514 14.3441 20.0057 15.5558C21.8071 16.7999 23.3042 18.3499 24.7232 20.0307C26.0467 21.5968 27.3938 23.1512 28.7408 24.7026C30.9692 27.2722 33.2054 29.8368 35.4494 32.3965C36.3744 33.4465 37.3758 34.4112 38.6714 35.0215C38.8535 35.1108 39.0523 35.1608 39.2549 35.1684C39.4576 35.176 39.6596 35.141 39.8478 35.0656C41.2625 34.5906 42.111 33.4759 42.9478 32.3642C45.5947 28.8525 47.3315 24.8967 48.5858 20.7101C48.6138 20.6174 48.6682 20.5336 48.7005 20.4424C49.3358 18.6675 50.7887 18.2175 52.2696 19.3792C53.3769 20.2483 54.2504 21.3483 55.0415 22.4997C58.5003 27.5437 59.8929 33.1318 59.2885 39.2111C58.7679 44.4345 56.6518 49.0064 53.4401 53.0886C51.7943 55.2211 49.8197 57.078 47.5903 58.59C43.8115 61.141 39.5181 62.8303 35.0141 63.5384C29.7819 64.3604 24.6262 64.1266 19.5734 62.5001C15.4558 61.1767 11.7236 59.1502 8.55603 56.1591C8.06486 55.6959 7.62223 55.2077 7.75017 54.4518C8.01487 54.2165 8.33839 54.2474 8.65308 54.2636C9.23574 54.3181 9.82081 54.3426 10.406 54.3371C10.9942 54.3077 11.7148 54.4474 12.0427 53.7945C12.3442 53.1989 11.8045 52.7563 11.5398 52.2828C11.4104 52.049 11.2148 51.8519 11.0913 51.6166C10.5589 50.6166 9.63541 50.3431 8.60897 50.2093C7.0943 50.0122 5.55464 49.9005 4.16791 49.1564L4.15321 49.1417C4.15199 49.1231 4.1461 49.1051 4.13607 49.0895C4.12604 49.0738 4.11221 49.0609 4.09585 49.052ZM33.8701 37.1023C33.748 37.0788 33.5142 37.2376 33.2965 37.4405C31.632 39.0015 29.8422 40.4234 27.9452 41.6919C27.2482 42.158 27.1585 42.6771 27.6202 43.3801C28.0697 44.0217 28.6383 44.5709 29.2952 44.9977C29.9408 45.4462 30.5907 45.4653 31.2878 45.0947C33.0921 44.1345 34.7377 42.9477 36.0979 41.4331C37.6317 39.7258 37.4435 39.142 35.8538 38.042C35.2965 37.664 34.8039 37.1611 33.8701 37.1023ZM17.8337 52.5284C17.9563 52.5312 18.0788 52.5228 18.1999 52.5034C20.4057 51.9328 22.5042 51.0696 24.3835 49.774C25.4762 49.0196 25.5835 47.9682 24.8041 47.0726C24.4982 46.7226 24.1733 46.3888 23.8512 46.0535C23.0659 45.233 22.7321 45.1786 21.738 45.7271C19.8263 46.7829 17.894 47.8064 15.7647 48.3858C15.2411 48.5329 15.0044 48.9167 15.125 49.4593C15.3779 50.5872 16.0382 51.4681 16.8764 52.2284C17.0062 52.3424 17.1584 52.428 17.3233 52.4797C17.4882 52.5313 17.6621 52.5479 17.8337 52.5284Z" fill="url(#paint0_linear_365_21232)"/>
<path d="M47.0981 10.5484C47.0643 12.8821 46.1893 16.0526 45.032 19.1628C43.8952 22.2186 42.5394 25.1686 40.8115 27.9391C40.5898 28.291 40.3288 28.6166 40.0336 28.9096C39.1409 29.8008 38.313 29.7523 37.5866 28.7111C36.9572 27.8097 36.4101 26.8538 35.8351 25.9171C33.9852 22.8627 32.0823 19.8393 30.3838 16.6953C29.1589 14.4291 28.3986 12.0145 28.4265 9.4028C28.4721 5.21762 31.3309 1.26626 35.1646 0.344223C38.9027 -0.554283 42.2644 0.288342 44.9996 3.08239C46.7466 4.86028 47.1098 7.14845 47.0981 10.5484ZM42.2291 9.3881C42.2585 6.79111 40.4909 5.0088 37.866 4.98675C35.5528 4.96763 33.6146 6.97787 33.5926 9.42192C33.569 11.9851 35.3572 13.8792 37.8233 13.9056C40.2894 13.9321 42.1967 11.9719 42.2291 9.3881Z" fill="#07AEAF"/>
<path d="M4.16406 49.1602C5.55079 49.9043 7.09046 50.016 8.60512 50.2131C9.63451 50.3469 10.5551 50.6204 11.0874 51.6204C11.2109 51.8557 11.4065 52.0527 11.5359 52.2865C11.8006 52.7601 12.3403 53.2027 12.0389 53.7983C11.7109 54.4512 10.9889 54.3115 10.4021 54.3409C9.81696 54.3464 9.23189 54.3219 8.64924 54.2674C8.33013 54.2512 8.01102 54.2203 7.74632 54.4556C6.21548 52.9145 4.92581 51.2189 4.16406 49.1602Z" fill="#E8E8E8"/>
<path d="M33.8708 37.1014C34.8046 37.1573 35.2972 37.6602 35.8546 38.0455C37.4442 39.1455 37.6325 39.7293 36.0987 41.4366C34.7384 42.9513 33.0929 44.138 31.2885 45.0983C30.5915 45.4688 29.9415 45.4497 29.2959 45.0012C28.6391 44.5744 28.0704 44.0252 27.621 43.3836C27.1592 42.6807 27.2489 42.1616 27.946 41.6954C29.8429 40.4269 31.6327 39.0051 33.2973 37.444C33.5149 37.2396 33.7487 37.0808 33.8708 37.1014Z" fill="#E8E8E8"/>
<path d="M17.8343 52.5276C17.6631 52.548 17.4895 52.5323 17.3246 52.4817C17.1598 52.431 17.0073 52.3465 16.877 52.2335C16.0388 51.4733 15.3785 50.5924 15.1256 49.4645C15.005 48.9219 15.2418 48.5336 15.7653 48.391C17.8946 47.8116 19.8225 46.7881 21.7387 45.7322C22.7327 45.1837 23.0621 45.2381 23.8518 46.0587C24.1739 46.394 24.4989 46.7278 24.8047 47.0778C25.5841 47.9733 25.4768 49.0248 24.3842 49.7792C22.5048 51.0747 20.4137 51.9379 18.2005 52.5085C18.0793 52.526 17.9567 52.5324 17.8343 52.5276Z" fill="#E8E8E8"/>
<defs>
<linearGradient id="paint0_linear_365_21232" x1="-0.00256708" y1="38.9052" x2="59.4253" y2="38.9052" gradientUnits="userSpaceOnUse">
<stop offset="0.178264" stop-color="#A897CE"/>
<stop offset="0.498264" stop-color="#8774B9"/>
<stop offset="1" stop-color="#6750A4"/>
</linearGradient>
</defs>
</svg>
