<svg width="50" height="50" viewBox="0 0 50 50" fill="none" xmlns="http://www.w3.org/2000/svg">
<path d="M5.58747 25H39.6125C43.4594 25 44.8687 25.8897 43.9089 29.7571C42.2158 36.5789 37.4222 38.2734 32.993 42.7262C31.9165 43.8085 33.5915 45.4077 33.5924 46.5981C33.5942 48.8393 31.4628 49 29.765 49H15.435C13.7372 49 11.6058 48.8393 11.6076 46.5981C11.6085 45.4327 13.2333 43.758 12.207 42.7262C7.77777 38.2734 2.98419 36.5789 1.29108 29.7571C0.331255 25.8897 1.74056 25 5.58747 25Z" stroke="white" stroke-width="2" stroke-linejoin="round"/>
<path d="M40.6 24.9999C40.6 20.7014 36.0403 17.7717 32.2 19.4611M4.60001 24.9999C4.60001 21.8961 6.92452 19.339 9.91625 18.9972C7.96251 14.5799 12.1032 9.62565 16.6934 10.6411M35.3008 18.9584C37.1759 14.6371 33.2044 9.60187 28.5066 10.6411C27.3636 4.1862 17.8364 4.1862 16.6934 10.6411M16.6934 10.6411C18.1181 10.9563 19.353 11.7812 20.2 12.9164" stroke="white" stroke-width="2" stroke-linecap="round" stroke-linejoin="round"/>
<path d="M37 17.8L49 3.40002" stroke="white" stroke-width="2" stroke-linecap="round" stroke-linejoin="round"/>
<path d="M34.5998 10.6L39.3998 1" stroke="white" stroke-width="2" stroke-linecap="round" stroke-linejoin="round"/>
</svg>
