<svg width="32" height="32" viewBox="0 0 32 32" fill="none" xmlns="http://www.w3.org/2000/svg">
<path d="M15.2936 5.12148C15.4811 4.93422 15.7352 4.82903 16.0002 4.82903C16.2653 4.82903 16.5194 4.93422 16.7069 5.12148L28.2936 16.7082C28.3859 16.8036 28.4963 16.8797 28.6183 16.9321C28.7403 16.9844 28.8715 17.012 29.0043 17.0131C29.1371 17.0142 29.2688 16.9888 29.3916 16.9384C29.5145 16.8881 29.6261 16.8138 29.72 16.7199C29.8138 16.6259 29.888 16.5142 29.9383 16.3913C29.9885 16.2684 30.0137 16.1367 30.0125 16.0039C30.0113 15.8712 29.9836 15.74 29.9312 15.618C29.8787 15.496 29.8025 15.3857 29.7069 15.2935L18.1216 3.70682C17.843 3.42824 17.5123 3.20726 17.1483 3.05649C16.7843 2.90572 16.3942 2.82812 16.0002 2.82812C15.6063 2.82813 15.2162 2.90572 14.8522 3.05649C14.4882 3.20726 14.1575 3.42824 13.8789 3.70682L2.29225 15.2935C2.19678 15.3858 2.12065 15.4962 2.0683 15.6182C2.01595 15.7402 1.98843 15.8714 1.98734 16.0042C1.98625 16.137 2.01161 16.2687 2.06195 16.3915C2.11229 16.5144 2.18659 16.626 2.28053 16.7199C2.37447 16.8137 2.48615 16.8879 2.60907 16.9382C2.73199 16.9884 2.86368 17.0136 2.99646 17.0124C3.12924 17.0112 3.26045 16.9835 3.38243 16.9311C3.50441 16.8786 3.61471 16.8024 3.70692 16.7068L15.2936 5.12148Z" fill="white"/>
<path d="M16 7.24219L26.8787 18.1209C26.9187 18.1609 26.9587 18.1982 27 18.2355V26.4995C27 27.8795 25.88 28.9995 24.5 28.9995H20C19.7348 28.9995 19.4804 28.8942 19.2929 28.7066C19.1054 28.5191 19 28.2647 19 27.9995V21.9995C19 21.7343 18.8946 21.48 18.7071 21.2924C18.5196 21.1049 18.2652 20.9995 18 20.9995H14C13.7348 20.9995 13.4804 21.1049 13.2929 21.2924C13.1054 21.48 13 21.7343 13 21.9995V27.9995C13 28.2647 12.8946 28.5191 12.7071 28.7066C12.5196 28.8942 12.2652 28.9995 12 28.9995H7.5C6.83696 28.9995 6.20107 28.7361 5.73223 28.2673C5.26339 27.7984 5 27.1626 5 26.4995V18.2355C5.04148 18.1984 5.08194 18.1602 5.12133 18.1209L16 7.24219Z" stroke="white" stroke-width="2"/>
</svg>
