<svg width="40" height="40" viewBox="0 0 40 40" fill="none" xmlns="http://www.w3.org/2000/svg">
<path d="M25 13.333H25.0167" stroke="#5C5F5F" stroke-width="1.5" stroke-linecap="round" stroke-linejoin="round"/>
<path d="M20.8333 35H10C8.67392 35 7.40215 34.4732 6.46447 33.5355C5.52678 32.5979 5 31.3261 5 30V10C5 8.67392 5.52678 7.40215 6.46447 6.46447C7.40215 5.52678 8.67392 5 10 5H30C31.3261 5 32.5979 5.52678 33.5355 6.46447C34.4732 7.40215 35 8.67392 35 10V20.8333" stroke="#5C5F5F" stroke-width="1.5" stroke-linecap="round" stroke-linejoin="round"/>
<path d="M5 26.6664L13.3333 18.333C14.88 16.8447 16.7867 16.8447 18.3333 18.333L25 24.9997" stroke="#5C5F5F" stroke-width="1.5" stroke-linecap="round" stroke-linejoin="round"/>
<path d="M23.333 23.3338L24.9997 21.6671C26.1163 20.5938 27.4163 20.2938 28.6363 20.7671" stroke="#5C5F5F" stroke-width="1.5" stroke-linecap="round" stroke-linejoin="round"/>
<path d="M26.667 31.667H36.667" stroke="#5C5F5F" stroke-width="1.5" stroke-linecap="round" stroke-linejoin="round"/>
<path d="M31.667 26.667V36.667" stroke="#5C5F5F" stroke-width="1.5" stroke-linecap="round" stroke-linejoin="round"/>
</svg>
